<mxfile host="app.diagrams.net" modified="2021-01-02T14:07:24.612Z" agent="5.0 (Windows NT 10.0; Win64; x64) AppleWebKit/537.36 (KHTML, like Gecko) Chrome/87.0.4280.88 Safari/537.36" etag="zmyysG5p06wuF3ZGmBg6" version="14.1.7" type="github">
  <diagram id="TNK90LvZn79N-iHInRv5" name="Page-1">
    <mxGraphModel dx="1056" dy="601" grid="1" gridSize="10" guides="1" tooltips="1" connect="1" arrows="1" fold="1" page="1" pageScale="1" pageWidth="1100" pageHeight="850" math="0" shadow="0">
      <root>
        <mxCell id="0" />
        <mxCell id="1" parent="0" />
        <mxCell id="Q77AWnfHHcXzyX1iP8RP-1" value="&lt;b&gt;نظرسنجی&lt;/b&gt;" style="shape=note;whiteSpace=wrap;html=1;size=14;verticalAlign=top;align=left;spacingTop=-6;rounded=0;shadow=0;comic=0;labelBackgroundColor=none;strokeWidth=1;fontFamily=Verdana;fontSize=12" parent="1" vertex="1">
          <mxGeometry width="100" height="35" as="geometry" />
        </mxCell>
        <mxCell id="Q77AWnfHHcXzyX1iP8RP-2" value="سیستم" style="rounded=0;whiteSpace=wrap;html=1;" parent="1" vertex="1">
          <mxGeometry x="30" y="220" width="120" height="60" as="geometry" />
        </mxCell>
        <mxCell id="Q77AWnfHHcXzyX1iP8RP-3" value="خریدار" style="shape=umlActor;verticalLabelPosition=bottom;verticalAlign=top;html=1;outlineConnect=0;" parent="1" vertex="1">
          <mxGeometry x="380" y="230" width="30" height="60" as="geometry" />
        </mxCell>
        <mxCell id="Q77AWnfHHcXzyX1iP8RP-4" value="خریدار" style="rounded=0;whiteSpace=wrap;html=1;" parent="1" vertex="1">
          <mxGeometry x="627" y="220" width="120" height="60" as="geometry" />
        </mxCell>
        <mxCell id="Q77AWnfHHcXzyX1iP8RP-5" value="نظر" style="rounded=0;whiteSpace=wrap;html=1;" parent="1" vertex="1">
          <mxGeometry x="950" y="220" width="120" height="60" as="geometry" />
        </mxCell>
        <mxCell id="Q77AWnfHHcXzyX1iP8RP-7" value="" style="endArrow=none;html=1;exitX=1;exitY=0.5;exitDx=0;exitDy=0;entryX=0;entryY=0.3333333333333333;entryDx=0;entryDy=0;entryPerimeter=0;" parent="1" source="Q77AWnfHHcXzyX1iP8RP-2" target="Q77AWnfHHcXzyX1iP8RP-3" edge="1">
          <mxGeometry width="50" height="50" relative="1" as="geometry">
            <mxPoint x="510" y="240" as="sourcePoint" />
            <mxPoint x="560" y="190" as="targetPoint" />
          </mxGeometry>
        </mxCell>
        <mxCell id="Q77AWnfHHcXzyX1iP8RP-8" value="" style="endArrow=none;html=1;entryX=0;entryY=0.5;entryDx=0;entryDy=0;exitX=1;exitY=0.3333333333333333;exitDx=0;exitDy=0;exitPerimeter=0;" parent="1" target="Q77AWnfHHcXzyX1iP8RP-4" edge="1" source="Q77AWnfHHcXzyX1iP8RP-3">
          <mxGeometry width="50" height="50" relative="1" as="geometry">
            <mxPoint x="450" y="250" as="sourcePoint" />
            <mxPoint x="560" y="190" as="targetPoint" />
          </mxGeometry>
        </mxCell>
        <mxCell id="Q77AWnfHHcXzyX1iP8RP-9" value="" style="endArrow=none;html=1;entryX=1;entryY=0.5;entryDx=0;entryDy=0;exitX=0;exitY=0.5;exitDx=0;exitDy=0;" parent="1" source="Q77AWnfHHcXzyX1iP8RP-5" target="Q77AWnfHHcXzyX1iP8RP-4" edge="1">
          <mxGeometry width="50" height="50" relative="1" as="geometry">
            <mxPoint x="720" y="140" as="sourcePoint" />
            <mxPoint x="560" y="190" as="targetPoint" />
          </mxGeometry>
        </mxCell>
        <mxCell id="Q77AWnfHHcXzyX1iP8RP-10" value="1: اعلان برای ثبت نظر" style="text;html=1;strokeColor=none;fillColor=none;align=center;verticalAlign=middle;whiteSpace=wrap;rounded=0;" parent="1" vertex="1">
          <mxGeometry x="140" y="190" width="150" height="20" as="geometry" />
        </mxCell>
        <mxCell id="Q77AWnfHHcXzyX1iP8RP-12" value="" style="endArrow=classicThin;html=1;strokeWidth=1;endSize=20;" parent="1" edge="1">
          <mxGeometry width="100" relative="1" as="geometry">
            <mxPoint x="290" y="200" as="sourcePoint" />
            <mxPoint x="370" y="200" as="targetPoint" />
            <Array as="points" />
          </mxGeometry>
        </mxCell>
        <mxCell id="Q77AWnfHHcXzyX1iP8RP-13" value="" style="endArrow=classicThin;html=1;strokeWidth=1;endSize=20;" parent="1" edge="1">
          <mxGeometry width="100" relative="1" as="geometry">
            <mxPoint x="290" y="220" as="sourcePoint" />
            <mxPoint x="370" y="220" as="targetPoint" />
            <Array as="points" />
          </mxGeometry>
        </mxCell>
        <mxCell id="Q77AWnfHHcXzyX1iP8RP-15" value="4: ثبت موفقیت آمیز" style="text;html=1;strokeColor=none;fillColor=none;align=center;verticalAlign=middle;whiteSpace=wrap;rounded=0;" parent="1" vertex="1">
          <mxGeometry x="140" y="210" width="150" height="20" as="geometry" />
        </mxCell>
        <mxCell id="Q77AWnfHHcXzyX1iP8RP-16" value="" style="endArrow=classicThin;html=1;strokeWidth=1;endSize=20;" parent="1" edge="1">
          <mxGeometry width="100" relative="1" as="geometry">
            <mxPoint x="538" y="220" as="sourcePoint" />
            <mxPoint x="618" y="220" as="targetPoint" />
            <Array as="points" />
          </mxGeometry>
        </mxCell>
        <mxCell id="Q77AWnfHHcXzyX1iP8RP-17" value="2: (ثبت نظر (نوشته ، امتیاز" style="text;html=1;strokeColor=none;fillColor=none;align=center;verticalAlign=middle;whiteSpace=wrap;rounded=0;" parent="1" vertex="1">
          <mxGeometry x="399" y="210" width="150" height="20" as="geometry" />
        </mxCell>
        <mxCell id="Q77AWnfHHcXzyX1iP8RP-18" value="" style="endArrow=classicThin;html=1;strokeWidth=1;endSize=20;" parent="1" edge="1">
          <mxGeometry width="100" relative="1" as="geometry">
            <mxPoint x="860" y="220" as="sourcePoint" />
            <mxPoint x="940" y="220" as="targetPoint" />
            <Array as="points" />
          </mxGeometry>
        </mxCell>
        <mxCell id="Q77AWnfHHcXzyX1iP8RP-19" value="3: ساخت کلاس نظر" style="text;html=1;strokeColor=none;fillColor=none;align=center;verticalAlign=middle;whiteSpace=wrap;rounded=0;" parent="1" vertex="1">
          <mxGeometry x="730" y="210" width="150" height="20" as="geometry" />
        </mxCell>
      </root>
    </mxGraphModel>
  </diagram>
</mxfile>
